<?xml version="1.0" encoding="utf-8"?>
<svg xmlns="http://www.w3.org/2000/svg" style="margin: auto; display: block; shape-rendering: auto; background: rgba(0, 0, 0, 0) none repeat scroll 0% 0%;" width="280" height="59" preserveAspectRatio="xMidYMid">
<style type="text/css">
  text {
    text-anchor: middle; font-size: 52px; opacity: 0;
  }
</style>
<g style="transform-origin: 140px 29.5px 0px; transform: scale(1.73333);">
<g transform="translate(140,29.5)">
  <g transform="translate(0,0)"><g class="path" style="opacity: 1; transform-origin: -68.3516px -2.4707px 0px; animation: 9.09091s linear -5.57143s infinite normal forwards running blink-07344d82-be75-4e91-8244-0c010fb894e8;"><path d="M10.44-16.62L10.44-16.62L10.56-17.55L10.56-17.55Q10.56-18.93 9.48-19.32L9.48-19.32L9.48-19.32Q8.64-19.59 8.19-19.59L8.19-19.59L8.16-19.59L8.16-19.59Q7.26-19.59 6.60-19.30L6.60-19.30L6.60-19.30Q5.94-19.02 5.64-18.60L5.64-18.60L5.64-18.60Q5.01-17.73 4.92-16.77L4.92-16.77L4.92-16.77Q4.92-15.63 5.94-14.80L5.94-14.80L5.94-14.80Q6.96-13.98 8.41-13.37L8.41-13.37L8.41-13.37Q9.87-12.75 11.32-12.03L11.32-12.03L11.32-12.03Q12.78-11.31 13.80-9.96L13.80-9.96L13.80-9.96Q14.82-8.61 14.82-6.72L14.82-6.72L14.82-6.72Q14.82-3.03 12.49-1.20L12.49-1.20L12.49-1.20Q10.17 0.63 7.21 0.63L7.21 0.63L7.21 0.63Q4.26 0.63 2.32-0.70L2.32-0.70L2.32-0.70Q0.39-2.04 0.39-4.29L0.39-4.29L0.39-4.32L0.39-4.32Q0.39-5.43 0.73-6.25L0.73-6.25L0.73-6.25Q1.08-7.08 1.56-7.47L1.56-7.47L1.56-7.47Q2.55-8.28 3.36-8.34L3.36-8.34L3.72-8.37L3.72-8.37Q4.56-8.37 5.25-7.96L5.25-7.96L5.25-7.96Q5.94-7.56 5.94-6.84L5.94-6.84L5.94-6.84Q5.94-6.48 5.55-6.24L5.55-6.24L5.55-6.24Q5.16-6 4.88-5.52L4.88-5.52L4.88-5.52Q4.59-5.04 4.56-4.71L4.56-4.71L4.50-4.38L4.50-4.38Q4.50-2.55 6.18-1.95L6.18-1.95L6.18-1.95Q6.78-1.74 7.14-1.74L7.14-1.74L7.14-1.74Q8.79-1.74 9.79-2.73L9.79-2.73L9.79-2.73Q10.80-3.72 10.80-5.25L10.80-5.25L10.80-5.25Q10.80-7.08 9.24-8.22L9.24-8.22L9.24-8.22Q8.07-9.06 6.71-9.63L6.71-9.63L6.71-9.63Q5.34-10.20 4.86-10.44L4.86-10.44L4.86-10.44Q4.38-10.68 3.84-11.01L3.84-11.01L3.84-11.01Q3.30-11.34 2.64-11.94L2.64-11.94L2.64-11.94Q1.20-13.20 1.20-15.34L1.20-15.34L1.20-15.34Q1.20-17.49 2.37-18.96L2.37-18.96L2.37-18.96Q4.47-21.63 8.67-21.63L8.67-21.63L8.67-21.63Q10.89-21.63 12.42-20.77L12.42-20.77L12.42-20.77Q13.95-19.92 13.95-18.42L13.95-18.42L13.95-18.42Q13.95-17.34 13.33-16.62L13.33-16.62L13.33-16.62Q12.72-15.90 11.76-15.90L11.76-15.90L11.76-15.90Q11.31-15.90 10.88-16.08L10.88-16.08L10.88-16.08Q10.44-16.26 10.44-16.62" fill="#af35fc" stroke="none" stroke-width="none" transform="translate(-75.95832061767578,8.028402470179971)" style="fill: rgb(175, 53, 252);"></path></g><g class="path" style="opacity: 1; transform-origin: -54.2832px 1.54883px 0px; animation: 9.09091s linear -5.14286s infinite normal forwards running blink-07344d82-be75-4e91-8244-0c010fb894e8;"><path d="M19.14-11.31L19.14-11.31L19.14-11.31Q18.36-11.28 18.02-11.26L18.02-11.26L18.02-11.26Q17.67-11.25 17.67-11.43L17.67-11.43L17.67-11.43Q17.67-11.61 17.85-11.79L17.85-11.79L17.85-11.79Q19.77-13.56 24.33-13.56L24.33-13.56L24.33-13.56Q25.89-13.56 26.79-13.29L26.79-13.29L27.09-13.20L27.09-13.20Q27.45-13.05 27.45-12.87L27.45-12.87L27.45-12.87Q27.45-12.72 27.24-12.63L27.24-12.63L27.24-12.63Q26.43-12.39 25.68-11.87L25.68-11.87L25.68-11.87Q24.93-11.34 24.93-11.13L24.93-11.13L25.11-10.92L25.11-10.92Q26.07-10.38 26.59-9.21L26.59-9.21L26.59-9.21Q27.12-8.04 27.18-7.14L27.18-7.14L27.24-6.21L27.24-6.21Q27.24-3.24 25.59-1.32L25.59-1.32L25.59-1.32Q23.94 0.60 21.09 0.60L21.09 0.60L21.09 0.60Q19.65 0.60 18.60 0.09L18.60 0.09L18.60 0.09Q17.55-0.42 17.05-1.06L17.05-1.06L17.05-1.06Q16.56-1.71 16.26-2.52L16.26-2.52L16.26-2.52Q15.90-3.63 15.90-4.81L15.90-4.81L15.90-4.81Q15.90-6 16.30-7.20L16.30-7.20L16.30-7.20Q16.71-8.40 17.23-8.97L17.23-8.97L17.23-8.97Q17.76-9.54 18.42-9.90L18.42-9.90L18.42-9.90Q19.26-10.35 19.77-10.35L19.77-10.35L19.77-10.35Q20.28-10.35 20.28-10.14L20.28-10.14L20.10-9.84L20.10-9.84Q19.44-9.06 19.15-7.80L19.15-7.80L19.15-7.80Q18.87-6.54 18.87-5.56L18.87-5.56L18.87-5.56Q18.87-4.59 19.11-3.63L19.11-3.63L19.11-3.63Q19.35-2.67 19.65-2.21L19.65-2.21L19.65-2.21Q19.95-1.74 20.34-1.50L20.34-1.50L20.34-1.50Q20.91-1.14 21.54-1.14L21.54-1.14L21.54-1.14Q22.17-1.14 22.77-1.64L22.77-1.64L22.77-1.64Q23.37-2.13 23.64-2.94L23.64-2.94L23.64-2.94Q24.18-4.44 24.18-6.03L24.18-6.03L24.18-6.03Q24.18-8.55 22.90-9.93L22.90-9.93L22.90-9.93Q21.63-11.31 19.14-11.31" fill="#af35fc" stroke="none" stroke-width="none" transform="translate(-75.95832061767578,8.028402470179971)" style="fill: rgb(108, 34, 154);"></path></g><g class="path" style="opacity: 1; transform-origin: -42.2832px 1.47461px 0px; animation: 9.09091s linear -4.71429s infinite normal forwards running blink-07344d82-be75-4e91-8244-0c010fb894e8;"><path d="M38.61-3.45L38.61-3.45L38.61-3.45Q38.61-1.74 37.24-0.61L37.24-0.61L37.24-0.61Q35.88 0.51 33.99 0.51L33.99 0.51L33.99 0.51Q31.23 0.51 29.94-1.16L29.94-1.16L29.94-1.16Q28.65-2.82 28.65-5.67L28.65-5.67L28.65-5.67Q28.65-8.70 30-11.04L30-11.04L30-11.04Q30.66-12.24 31.89-12.93L31.89-12.93L31.89-12.93Q33.12-13.62 34.77-13.62L34.77-13.62L34.77-13.62Q37.26-13.62 38.28-11.94L38.28-11.94L38.28-11.94Q38.70-11.25 38.70-10.32L38.70-10.32L38.70-10.32Q38.70-8.88 37.50-8.16L37.50-8.16L37.50-8.16Q37.02-7.89 36.61-7.89L36.61-7.89L36.61-7.89Q36.21-7.89 35.95-7.93L35.95-7.93L35.95-7.93Q35.70-7.98 35.28-8.34L35.28-8.34L35.28-8.34Q34.86-8.70 34.86-9.33L34.86-9.33L34.86-9.33Q34.89-9.66 35.37-9.87L35.37-9.87L35.37-9.87Q35.82-10.14 35.82-10.83L35.82-10.83L35.82-10.83Q35.82-12 34.38-12L34.38-12L34.38-12Q34.02-12 33.52-11.68L33.52-11.68L33.52-11.68Q33.03-11.37 32.70-10.88L32.70-10.88L32.70-10.88Q32.37-10.38 32.09-9.31L32.09-9.31L32.09-9.31Q31.80-8.25 31.80-7.27L31.80-7.27L31.80-7.27Q31.80-6.30 31.88-5.80L31.88-5.80L31.88-5.80Q31.95-5.31 32.20-4.46L32.20-4.46L32.20-4.46Q32.46-3.60 33.16-3.06L33.16-3.06L33.16-3.06Q33.87-2.52 34.92-2.52L34.92-2.52L34.92-2.52Q36.18-2.52 37.14-3.57L37.14-3.57L37.14-3.57Q37.53-3.99 37.77-4.59L37.77-4.59L37.77-4.59Q37.89-4.83 38.07-4.83L38.07-4.83L38.07-4.83Q38.34-4.83 38.47-4.33L38.47-4.33L38.47-4.33Q38.61-3.84 38.61-3.45" fill="#af35fc" stroke="none" stroke-width="none" transform="translate(-75.95832061767578,8.028402470179971)" style="fill: rgb(181, 41, 214);"></path></g><g class="path" style="opacity: 1; transform-origin: -33.207px -9.26563px 0px; animation: 9.09091s linear -4.28571s infinite normal forwards running blink-07344d82-be75-4e91-8244-0c010fb894e8;"><path d="M43.29-16.05L43.29-16.05L42.57-16.08L42.57-16.08Q41.76-16.08 41.52-15.69L41.52-15.69L41.52-15.69Q41.46-15.60 41.37-15.60L41.37-15.60L41.37-15.60Q40.98-15.60 40.98-16.93L40.98-16.93L40.98-16.93Q40.98-18.27 41.38-18.63L41.38-18.63L41.38-18.63Q41.79-18.99 42.79-18.99L42.79-18.99L42.79-18.99Q43.80-18.99 44.16-18.64L44.16-18.64L44.16-18.64Q44.52-18.30 44.52-17.49L44.52-17.49L44.52-17.49Q44.52-16.68 44.25-16.36L44.25-16.36L44.25-16.36Q43.98-16.05 43.29-16.05" fill="#af35fc" stroke="none" stroke-width="none" transform="translate(-75.95832061767578,8.028402470179971)" style="fill: rgb(175, 53, 252);"></path></g><g class="path" style="opacity: 1; transform-origin: -33.5996px 1.59375px 0px; animation: 9.09091s linear -3.85714s infinite normal forwards running blink-07344d82-be75-4e91-8244-0c010fb894e8;"><path d="M40.89-0.90L40.89-0.90L41.22-7.89L41.22-7.89Q41.22-10.38 40.65-11.28L40.65-11.28L40.65-11.28Q40.47-11.58 40.23-11.73L40.23-11.73L40.23-11.73Q40.05-11.79 40.05-11.97L40.05-11.97L40.05-11.97Q40.05-12.51 41.58-13.02L41.58-13.02L41.58-13.02Q43.11-13.53 43.81-13.53L43.81-13.53L43.81-13.53Q44.52-13.53 44.55-13.17L44.55-13.17L44.55-13.17Q44.55-12.57 44.38-9.76L44.38-9.76L44.38-9.76Q44.22-6.96 44.22-3.87L44.22-3.87L44.22-3.87Q44.22-0.78 44.58-0.03L44.58-0.03L44.58-0.03Q44.67 0.12 44.67 0.27L44.67 0.27L44.67 0.27Q44.67 0.66 43.53 0.66L43.53 0.66L43.53 0.66Q42.39 0.66 41.19 0.06L41.19 0.06L41.19 0.06Q40.89-0.09 40.89-0.90" fill="#af35fc" stroke="none" stroke-width="none" transform="translate(-75.95832061767578,8.028402470179971)" style="fill: rgb(108, 34, 154);"></path></g><g class="path" style="opacity: 1; transform-origin: -24.2676px 1.44336px 0px; animation: 9.09091s linear -3.42857s infinite normal forwards running blink-07344d82-be75-4e91-8244-0c010fb894e8;"><path d="M56.52-9L56.52-9L56.46-5.16L56.46-5.16Q56.46-1.17 57.33-0.36L57.33-0.36L57.33-0.36Q57.45-0.24 57.45-0.09L57.45-0.09L57.45-0.09Q57.45 0.36 55.51 0.36L55.51 0.36L55.51 0.36Q53.58 0.36 53.46-0.78L53.46-0.78L53.46-0.78Q53.43-1.05 53.43-1.89L53.43-1.89L53.55-6.69L53.55-6.69Q53.55-6.90 53.31-6.90L53.31-6.90L53.31-6.90Q51.87-6.90 50.61-6.09L50.61-6.09L50.61-6.09Q49.35-5.28 49.35-4.02L49.35-4.02L49.35-4.02Q49.35-3.36 49.71-2.91L49.71-2.91L49.71-2.91Q50.07-2.46 50.59-2.46L50.59-2.46L50.59-2.46Q51.12-2.46 51.46-2.67L51.46-2.67L51.46-2.67Q51.81-2.88 51.87-2.91L51.87-2.91L51.87-2.91Q52.38-2.85 52.38-1.84L52.38-1.84L52.38-1.84Q52.38-0.84 51.45-0.22L51.45-0.22L51.45-0.22Q50.52 0.39 49.50 0.39L49.50 0.39L49.50 0.39Q48.48 0.39 47.74 0.03L47.74 0.03L47.74 0.03Q47.01-0.33 46.68-0.78L46.68-0.78L46.68-0.78Q46.35-1.23 46.14-1.80L46.14-1.80L46.14-1.80Q45.93-2.49 45.93-3L45.93-3L45.93-3Q45.93-5.10 47.25-6.36L47.25-6.36L47.25-6.36Q48.57-7.62 50.64-8.16L50.64-8.16L50.64-8.16Q53.37-8.70 53.49-9.15L53.49-9.15L53.49-9.15Q53.58-9.48 53.58-10.26L53.58-10.26L53.58-10.26Q53.58-11.85 51.96-11.85L51.96-11.85L51.96-11.85Q51.27-11.85 50.73-11.41L50.73-11.41L50.73-11.41Q50.19-10.98 50.19-10.32L50.19-10.32L50.37-9.60L50.37-9.60Q50.31-9.09 49.29-9L49.29-9L48.96-8.97L48.96-8.97Q48.06-8.97 47.53-9.42L47.53-9.42L47.53-9.42Q47.01-9.87 47.01-10.62L47.01-10.62L47.01-10.62Q47.01-11.10 47.32-11.68L47.32-11.68L47.32-11.68Q47.64-12.27 48.12-12.63L48.12-12.63L48.12-12.63Q48.60-12.99 49.60-13.28L49.60-13.28L49.60-13.28Q50.61-13.56 51.54-13.56L51.54-13.56L51.54-13.56Q52.47-13.56 52.98-13.50L52.98-13.50L52.98-13.50Q53.49-13.44 54.37-13.21L54.37-13.21L54.37-13.21Q55.26-12.99 55.84-12.36L55.84-12.36L55.84-12.36Q56.43-11.73 56.47-11.03L56.47-11.03L56.47-11.03Q56.52-10.32 56.52-9" fill="#af35fc" stroke="none" stroke-width="none" transform="translate(-75.95832061767578,8.028402470179971)" style="fill: rgb(181, 41, 214);"></path></g><g class="path" style="opacity: 1; transform-origin: -15.9883px -2.05273px 0px; animation: 9.09091s linear -3s infinite normal forwards running blink-07344d82-be75-4e91-8244-0c010fb894e8;"><path d="M62.10-17.16L62.10-17.16L61.92-6.15L61.92-6.15Q61.92-0.99 62.25 0.03L62.25 0.03L62.25 0.03Q62.34 0.21 62.34 0.39L62.34 0.39L62.34 0.39Q62.34 0.75 61.47 0.75L61.47 0.75L61.47 0.75Q60.60 0.75 59.53 0.32L59.53 0.32L59.53 0.32Q58.47-0.12 58.47-0.81L58.47-0.81L58.47-0.81Q59.07-5.01 59.07-12.03L59.07-12.03L58.95-16.62L58.95-16.62Q58.89-17.46 58.60-18.06L58.60-18.06L58.60-18.06Q58.32-18.66 58.05-18.84L58.05-18.84L57.81-18.99L57.81-18.99Q57.60-19.11 57.60-19.26L57.60-19.26L57.60-19.26Q57.60-19.68 58.91-20.29L58.91-20.29L58.91-20.29Q60.21-20.91 61.44-20.91L61.44-20.91L61.44-20.91Q61.92-20.91 61.98-20.58L61.98-20.58L61.98-20.58Q62.10-19.80 62.10-17.16" fill="#af35fc" stroke="none" stroke-width="none" transform="translate(-75.95832061767578,8.028402470179971)" style="fill: rgb(175, 53, 252);"></path></g><g class="path" style="opacity: 1; transform-origin: -0.927734px 1.47461px 0px; animation: 9.09091s linear -2.57143s infinite normal forwards running blink-07344d82-be75-4e91-8244-0c010fb894e8;"><path d="M69.54 0.21L69.54 0.21L69.54 0.21Q70.08-3.03 70.08-7.56L70.08-7.56L70.08-7.56Q70.08-12.09 69.81-13.44L69.81-13.44L69.81-13.44Q69.81-13.83 70.71-13.83L70.71-13.83L70.71-13.83Q72.09-13.83 72.54-12.78L72.54-12.78L72.54-12.78Q72.57-12.69 72.69-12.69L72.69-12.69L72.69-12.69Q72.81-12.69 72.87-12.75L72.87-12.75L72.87-12.75Q73.80-13.71 75.75-13.71L75.75-13.71L75.75-13.71Q77.70-13.71 78.84-12.72L78.84-12.72L78.84-12.72Q79.98-11.73 79.98-9.84L79.98-9.84L79.98-9.84Q79.98-8.70 79.78-6.60L79.78-6.60L79.78-6.60Q79.59-4.50 79.59-3.48L79.59-3.48L79.59-3.48Q79.59-1.05 80.40 0.03L80.40 0.03L80.40 0.03Q80.52 0.18 80.52 0.33L80.52 0.33L80.52 0.33Q80.52 0.72 79.68 0.72L79.68 0.72L79.68 0.72Q75.96 0.72 75.96-2.58L75.96-2.58L75.96-2.58Q75.96-3.84 76.53-6.09L76.53-6.09L76.53-6.09Q77.10-8.34 77.10-9.51L77.10-9.51L77.10-9.51Q77.10-11.91 75.12-11.91L75.12-11.91L75.12-11.91Q74.16-11.91 73.67-11.34L73.67-11.34L73.67-11.34Q73.17-10.77 73.11-10.04L73.11-10.04L73.11-10.04Q73.05-9.30 73.05-7.26L73.05-7.26L73.05-7.26Q73.05-4.14 73.26-1.83L73.26-1.83L73.32-1.17L73.32-1.17Q73.32-0.33 72.22 0.14L72.22 0.14L72.22 0.14Q71.13 0.60 70.33 0.60L70.33 0.60L70.33 0.60Q69.54 0.60 69.54 0.21" fill="#af35fc" stroke="none" stroke-width="none" transform="translate(-75.95832061767578,8.028402470179971)" style="fill: rgb(108, 34, 154);"></path></g><g class="path" style="opacity: 1; transform-origin: 10.2461px 1.50391px 0px; animation: 9.09091s linear -2.14286s infinite normal forwards running blink-07344d82-be75-4e91-8244-0c010fb894e8;"><path d="M84.36-7.62L84.36-7.62L84.39-6.87L84.39-6.87Q84.39-6.69 84.63-6.69L84.63-6.69L84.63-6.69Q85.59-6.78 86.31-7.18L86.31-7.18L86.31-7.18Q87.03-7.59 87.39-8.10L87.39-8.10L87.39-8.10Q88.11-9.21 88.17-10.02L88.17-10.02L88.20-10.38L88.20-10.38Q88.20-12 86.91-12L86.91-12L86.91-12Q85.95-12 85.35-11.16L85.35-11.16L85.35-11.16Q84.36-9.84 84.36-7.62zM90.90-3.63L90.90-3.63L90.90-3.63Q90.90-2.49 90.44-1.64L90.44-1.64L90.44-1.64Q89.97-0.78 89.39-0.38L89.39-0.38L89.39-0.38Q88.80 0.03 88.02 0.27L88.02 0.27L88.02 0.27Q87.03 0.57 86.13 0.57L86.13 0.57L86.13 0.57Q83.61 0.57 82.41-1.32L82.41-1.32L82.41-1.32Q81.21-3.21 81.21-6.13L81.21-6.13L81.21-6.13Q81.21-9.06 82.69-11.34L82.69-11.34L82.69-11.34Q84.18-13.62 87.15-13.62L87.15-13.62L87.15-13.62Q89.85-13.62 90.81-11.73L90.81-11.73L90.81-11.73Q91.20-11.01 91.20-10.37L91.20-10.37L91.20-10.37Q91.20-9.72 91.14-9.34L91.14-9.34L91.14-9.34Q91.08-8.97 90.72-8.22L90.72-8.22L90.72-8.22Q90.36-7.47 89.76-6.87L89.76-6.87L89.76-6.87Q89.16-6.27 87.87-5.73L87.87-5.73L87.87-5.73Q86.58-5.19 84.84-5.01L84.84-5.01L84.84-5.01Q84.60-5.01 84.60-4.80L84.60-4.80L84.60-4.80Q84.60-4.53 84.80-4.00L84.80-4.00L84.80-4.00Q84.99-3.48 85.23-3.12L85.23-3.12L85.23-3.12Q85.89-2.28 87.18-2.28L87.18-2.28L87.18-2.28Q88.47-2.28 89.37-3.12L89.37-3.12L89.37-3.12Q89.85-3.57 90.15-4.23L90.15-4.23L90.15-4.23Q90.27-4.47 90.47-4.47L90.47-4.47L90.47-4.47Q90.66-4.47 90.78-4.14L90.78-4.14L90.78-4.14Q90.90-3.81 90.90-3.63" fill="#af35fc" stroke="none" stroke-width="none" transform="translate(-75.95832061767578,8.028402470179971)" style="fill: rgb(181, 41, 214);"></path></g><g class="path" style="opacity: 1; transform-origin: 19.502px -0.357422px 0px; animation: 9.09091s linear -1.71429s infinite normal forwards running blink-07344d82-be75-4e91-8244-0c010fb894e8;"><path d="M92.10-11.70L92.10-11.70L92.19-12.90L92.19-12.90Q92.22-13.17 92.61-13.17L92.61-13.17L93.66-13.17L93.54-15.57L93.54-15.69L93.54-15.69Q93.54-16.38 94.59-17.01L94.59-17.01L94.59-17.01Q95.64-17.64 96.51-17.64L96.51-17.64L96.51-17.64Q96.78-17.64 96.78-17.40L96.78-17.40L96.78-17.37L96.78-17.37Q96.66-16.56 96.54-13.20L96.54-13.20L96.54-13.20Q97.86-13.20 98.22-13.26L98.22-13.26L98.22-13.26Q98.58-13.32 98.61-13.32L98.61-13.32L98.61-13.32Q98.82-13.32 98.82-12.96L98.82-12.96L98.82-12.96Q98.82-12.60 98.49-12.04L98.49-12.04L98.49-12.04Q98.16-11.49 97.77-11.46L97.77-11.46L96.51-11.46L96.51-11.46Q96.48-10.44 96.48-8.03L96.48-8.03L96.48-8.03Q96.48-5.61 96.53-4.05L96.53-4.05L96.53-4.05Q96.57-2.49 96.63-1.69L96.63-1.69L96.63-1.69Q96.69-0.90 96.77-0.42L96.77-0.42L96.77-0.42Q96.84 0.06 96.89 0.27L96.89 0.27L96.89 0.27Q96.93 0.48 96.93 0.54L96.93 0.54L96.93 0.54Q96.93 0.84 96.54 0.87L96.54 0.87L96.54 0.87Q95.37 0.87 94.22 0.54L94.22 0.54L94.22 0.54Q93.06 0.21 93.06-0.60L93.06-0.60L93.06-0.60Q93.69-5.64 93.69-11.43L93.69-11.43L93.69-11.43Q92.88-11.43 92.46-11.37L92.46-11.37L92.43-11.37L92.43-11.37Q92.16-11.37 92.10-11.70" fill="#af35fc" stroke="none" stroke-width="none" transform="translate(-75.95832061767578,8.028402470179971)" style="fill: rgb(175, 53, 252);"></path></g><g class="path" style="opacity: 1; transform-origin: 32.2969px 1.66797px 0px; animation: 9.09091s linear -1.28571s infinite normal forwards running blink-07344d82-be75-4e91-8244-0c010fb894e8;"><path d="M111.21 0.60L111.21 0.60L111.21 0.60Q110.91 0.81 110.76 0.81L110.76 0.81L110.76 0.81Q110.43 0.81 110.31 0.54L110.31 0.54L110.31 0.54Q109.41-1.26 108.81-4.32L108.81-4.32L108.81-4.32Q108.78-4.44 108.72-4.44L108.72-4.44L108.54-4.32L108.54-4.32Q107.73-2.88 106.67-1.65L106.67-1.65L106.67-1.65Q105.60-0.42 104.94 0.09L104.94 0.09L104.28 0.60L104.28 0.60Q103.98 0.87 103.80 0.87L103.80 0.87L103.80 0.87Q103.47 0.87 103.35 0.57L103.35 0.57L103.35 0.57Q102.69-0.69 101.82-4.32L101.82-4.32L101.55-5.55L101.55-5.55Q100.98-8.19 100.40-9.78L100.40-9.78L100.40-9.78Q99.81-11.37 99.51-11.64L99.51-11.64L99.21-11.91L99.21-11.91Q98.94-12 98.94-12.21L98.94-12.21L98.94-12.21Q98.94-12.63 100.19-13.11L100.19-13.11L100.19-13.11Q101.43-13.59 102.12-13.59L102.12-13.59L102.12-13.59Q102.81-13.59 103.04-13.04L103.04-13.04L103.04-13.04Q103.26-12.48 103.74-9.93L103.74-9.93L103.74-9.93Q105.00-3.21 105.57-3.21L105.57-3.21L105.57-3.21Q105.75-3.21 105.98-3.52L105.98-3.52L105.98-3.52Q106.20-3.84 106.52-4.29L106.52-4.29L106.52-4.29Q106.83-4.74 107.37-5.85L107.37-5.85L107.37-5.85Q107.91-6.96 107.91-7.80L107.91-7.80L107.91-7.80Q107.91-7.95 107.70-8.89L107.70-8.89L107.70-8.89Q107.49-9.84 107.09-10.72L107.09-10.72L107.09-10.72Q106.68-11.61 106.44-11.73L106.44-11.73L106.44-11.73Q105.90-12.03 105.90-12.24L105.90-12.24L105.90-12.24Q105.90-12.60 107.13-13.09L107.13-13.09L107.13-13.09Q108.36-13.59 109.35-13.59L109.35-13.59L109.35-13.59Q109.80-13.59 109.98-13.05L109.98-13.05L109.98-13.05Q110.43-11.64 111.06-7.98L111.06-7.98L111.06-7.98Q111.87-3.30 112.56-3.30L112.56-3.30L112.56-3.30Q112.80-3.30 113.28-3.97L113.28-3.97L113.28-3.97Q113.76-4.65 114.23-5.94L114.23-5.94L114.23-5.94Q114.69-7.23 114.69-8.14L114.69-8.14L114.69-8.14Q114.69-9.06 114.62-9.55L114.62-9.55L114.62-9.55Q114.54-10.05 114.09-10.71L114.09-10.71L114.09-10.71Q113.64-11.37 113.07-11.47L113.07-11.47L113.07-11.47Q112.50-11.58 112.50-11.85L112.50-11.85L112.50-11.85Q112.50-12.27 113.75-12.93L113.75-12.93L113.75-12.93Q114.99-13.59 116.31-13.59L116.31-13.59L116.31-13.59Q117.57-13.59 117.57-11.07L117.57-11.07L117.57-11.07Q117.57-7.92 115.71-4.59L115.71-4.59L115.71-4.59Q113.85-1.26 111.21 0.60" fill="#af35fc" stroke="none" stroke-width="none" transform="translate(-75.95832061767578,8.028402470179971)" style="fill: rgb(108, 34, 154);"></path></g><g class="path" style="opacity: 1; transform-origin: 47.5664px 1.54883px 0px; animation: 9.09091s linear -0.857143s infinite normal forwards running blink-07344d82-be75-4e91-8244-0c010fb894e8;"><path d="M120.99-11.31L120.99-11.31L120.99-11.31Q120.21-11.28 119.87-11.26L119.87-11.26L119.87-11.26Q119.52-11.25 119.52-11.43L119.52-11.43L119.52-11.43Q119.52-11.61 119.70-11.79L119.70-11.79L119.70-11.79Q121.62-13.56 126.18-13.56L126.18-13.56L126.18-13.56Q127.74-13.56 128.64-13.29L128.64-13.29L128.94-13.20L128.94-13.20Q129.30-13.05 129.30-12.87L129.30-12.87L129.30-12.87Q129.30-12.72 129.09-12.63L129.09-12.63L129.09-12.63Q128.28-12.39 127.53-11.87L127.53-11.87L127.53-11.87Q126.78-11.34 126.78-11.13L126.78-11.13L126.96-10.92L126.96-10.92Q127.92-10.38 128.44-9.21L128.44-9.21L128.44-9.21Q128.97-8.04 129.03-7.14L129.03-7.14L129.09-6.21L129.09-6.21Q129.09-3.24 127.44-1.32L127.44-1.32L127.44-1.32Q125.79 0.60 122.94 0.60L122.94 0.60L122.94 0.60Q121.50 0.60 120.45 0.09L120.45 0.09L120.45 0.09Q119.40-0.42 118.91-1.06L118.91-1.06L118.91-1.06Q118.41-1.71 118.11-2.52L118.11-2.52L118.11-2.52Q117.75-3.63 117.75-4.81L117.75-4.81L117.75-4.81Q117.75-6 118.16-7.20L118.16-7.20L118.16-7.20Q118.56-8.40 119.09-8.97L119.09-8.97L119.09-8.97Q119.61-9.54 120.27-9.90L120.27-9.90L120.27-9.90Q121.11-10.35 121.62-10.35L121.62-10.35L121.62-10.35Q122.13-10.35 122.13-10.14L122.13-10.14L121.95-9.84L121.95-9.84Q121.29-9.06 121.01-7.80L121.01-7.80L121.01-7.80Q120.72-6.54 120.72-5.56L120.72-5.56L120.72-5.56Q120.72-4.59 120.96-3.63L120.96-3.63L120.96-3.63Q121.20-2.67 121.50-2.21L121.50-2.21L121.50-2.21Q121.80-1.74 122.19-1.50L122.19-1.50L122.19-1.50Q122.76-1.14 123.39-1.14L123.39-1.14L123.39-1.14Q124.02-1.14 124.62-1.64L124.62-1.64L124.62-1.64Q125.22-2.13 125.49-2.94L125.49-2.94L125.49-2.94Q126.03-4.44 126.03-6.03L126.03-6.03L126.03-6.03Q126.03-8.55 124.76-9.93L124.76-9.93L124.76-9.93Q123.48-11.31 120.99-11.31" fill="#af35fc" stroke="none" stroke-width="none" transform="translate(-75.95832061767578,8.028402470179971)" style="fill: rgb(181, 41, 214);"></path></g><g class="path" style="opacity: 1; transform-origin: 59.041px 1.44336px 0px; animation: 9.09091s linear -0.428571s infinite normal forwards running blink-07344d82-be75-4e91-8244-0c010fb894e8;"><path d="M139.65-10.32L139.50-8.04L139.62-6.99L139.62-6.99Q139.62-6.42 138.54-6.42L138.54-6.42L138.54-6.42Q136.35-6.42 136.35-8.07L136.35-8.07L136.35-8.07Q136.35-8.46 136.56-9.15L136.56-9.15L136.56-9.15Q136.77-9.84 136.77-10.35L136.77-10.35L136.77-10.35Q136.77-10.86 136.47-11.23L136.47-11.23L136.47-11.23Q136.17-11.61 135.60-11.61L135.60-11.61L135.60-11.61Q135.03-11.61 134.63-11.21L134.63-11.21L134.63-11.21Q134.22-10.80 134.13-10.38L134.13-10.38L134.01-9.96L134.01-9.96Q133.83-9.03 133.83-6.85L133.83-6.85L133.83-6.85Q133.83-4.68 133.89-3.44L133.89-3.44L133.89-3.44Q133.95-2.19 134.01-1.72L134.01-1.72L134.01-1.72Q134.07-1.26 134.07-1.17L134.07-1.17L134.07-1.17Q134.07-0.42 133.14 0.04L133.14 0.04L133.14 0.04Q132.21 0.51 131.28 0.51L131.28 0.51L131.28 0.51Q130.35 0.51 130.35 0.12L130.35 0.12L130.50-0.81L130.50-0.81Q130.92-3.42 130.92-7.62L130.92-7.62L130.92-7.62Q130.92-11.82 130.62-13.32L130.62-13.32L130.62-13.32Q130.62-13.68 131.25-13.68L131.25-13.68L131.25-13.68Q132.87-13.68 133.41-12.57L133.41-12.57L133.41-12.57Q133.44-12.45 133.51-12.45L133.51-12.45L133.51-12.45Q133.59-12.45 133.92-12.72L133.92-12.72L133.92-12.72Q134.91-13.53 136.26-13.53L136.26-13.53L136.26-13.53Q137.10-13.53 137.94-13.20L137.94-13.20L137.94-13.20Q139.65-12.51 139.65-10.32L139.65-10.32" fill="#af35fc" stroke="none" stroke-width="none" transform="translate(-75.95832061767578,8.028402470179971)" style="fill: rgb(175, 53, 252);"></path></g><g class="path" style="opacity: 1; transform-origin: 70.3066px -2.125px 0px; animation: 9.09091s linear 0s infinite normal forwards running blink-07344d82-be75-4e91-8244-0c010fb894e8;"><path d="M147.48-9.72L147.48-9.72L147.48-9.72Q147.36-9.60 147.36-9.46L147.36-9.46L147.36-9.46Q147.36-9.33 147.91-9.21L147.91-9.21L147.91-9.21Q148.47-9.09 149.13-8.55L149.13-8.55L149.13-8.55Q149.79-8.01 150.12-7.38L150.12-7.38L150.12-7.38Q150.75-6.15 150.81-5.22L150.81-5.22L150.84-4.83L150.84-4.83Q150.99-1.32 152.13-0.03L152.13-0.03L152.13-0.03Q152.28 0.18 152.28 0.27L152.28 0.27L152.28 0.27Q152.28 0.60 151.44 0.60L151.44 0.60L151.44 0.60Q148.92 0.60 148.23-0.45L148.23-0.45L148.23-0.45Q147.87-0.87 147.87-3.06L147.87-3.06L147.87-3.81L147.87-3.81Q147.87-6.60 147.18-7.68L147.18-7.68L147.18-7.68Q146.82-8.19 146.29-8.19L146.29-8.19L146.29-8.19Q145.77-8.19 145.20-7.27L145.20-7.27L145.20-7.27Q144.63-6.36 144.63-5.73L144.63-5.73L144.63-5.73Q144.63-3.21 144.75-2.22L144.75-2.22L144.75-2.22Q144.87-1.23 144.87-1.20L144.87-1.20L144.87-1.20Q144.87-0.33 143.69 0.15L143.69 0.15L143.69 0.15Q142.50 0.63 141.45 0.63L141.45 0.63L141.45 0.63Q141.06 0.63 141.06 0.15L141.06 0.15L141.06 0.03L141.06 0.03Q141.78-3.66 141.78-11.61L141.78-11.61L141.78-11.61Q141.78-14.22 141.66-16.02L141.66-16.02L141.60-16.62L141.60-16.62Q141.54-17.46 141.25-18.06L141.25-18.06L141.25-18.06Q140.97-18.66 140.70-18.84L140.70-18.84L140.46-18.99L140.46-18.99Q140.25-19.11 140.25-19.26L140.25-19.26L140.25-19.26Q140.25-19.74 141.69-20.34L141.69-20.34L141.69-20.34Q143.13-20.94 144.18-20.94L144.18-20.94L144.18-20.94Q144.66-20.91 144.69-20.58L144.69-20.58L144.69-20.58Q144.84-19.38 144.84-15.64L144.84-15.64L144.84-15.64Q144.84-11.91 144.66-9.69L144.66-9.69L144.66-9.69Q144.66-9.33 144.78-9.33L144.78-9.33L144.78-9.33Q144.90-9.33 145.16-9.67L145.16-9.67L145.16-9.67Q145.41-10.02 146.06-10.77L146.06-10.77L146.06-10.77Q146.70-11.52 147.79-12.51L147.79-12.51L147.79-12.51Q148.89-13.50 149.56-13.50L149.56-13.50L149.56-13.50Q150.24-13.50 150.90-13.17L150.90-13.17L150.90-13.17Q151.56-12.84 151.56-12.54L151.56-12.54L151.23-12.33L151.23-12.33Q149.52-11.70 147.48-9.72" fill="#af35fc" stroke="none" stroke-width="none" transform="translate(-75.95832061767578,8.028402470179971)" style="fill: rgb(108, 34, 154);"></path></g></g>
</g>
</g>
<style id="blink-07344d82-be75-4e91-8244-0c010fb894e8" data-anikit="">@keyframes blink-07344d82-be75-4e91-8244-0c010fb894e8 {
  0% { opacity: 1; }
  49.75% { opacity: 1; }
  50.25% { opacity: 0; }
  99.5% { opacity: 0; }
  100% { opacity: 1; }
}</style></svg>