<?xml version="1.0" encoding="utf-8"?>
<svg xmlns="http://www.w3.org/2000/svg" style="margin: auto; background: rgba(0, 0, 0, 0) none repeat scroll 0% 0%; display: block; shape-rendering: auto;" width="289" height="59" preserveAspectRatio="xMidYMid">
<style type="text/css">
  text {
    text-anchor: middle; font-size: 44px; opacity: 0;
  }
</style>
<g style="transform-origin:144.5px 29.5px;transform:scale(1)">
<g transform="translate(144.5,29.5)">
  <g transform="translate(0,0)"><g class="path" style="transform: scale(1); transform-origin: -111.695px 0.939453px 0px; animation: 1s linear -0.612857s infinite normal forwards running beat-8b8350bc-420b-44f1-8e1b-5b7d88e5f3b7;"><path d="M13.60 8.54L13.60 8.54L13.60 8.54Q18.22 8.54 20.79 6.64L20.79 6.64L20.79 6.64Q23.36 4.75 23.36 1.63L23.36 1.63L23.36 1.63Q23.36-0.62 22.24-2.33L22.24-2.33L22.24-2.33Q21.12-4.05 19.45-5.17L19.45-5.17L19.45-5.17Q17.78-6.29 16.04-7.39L16.04-7.39L16.04-7.39Q14.30-8.49 12.80-10.16L12.80-10.16L12.80-10.16Q11.31-11.84 10.82-13.95L10.82-13.95L10.82-13.95Q6.82-15.14 5.54-18.92L5.54-18.92L5.54-18.92Q5.06-20.37 5.06-21.96L5.06-21.96L5.06-21.96Q5.06-23.54 5.54-25.26L5.54-25.26L5.54-25.26Q6.56-28.64 8.84-30.36L8.84-30.36L9.33-29.66L9.33-29.66Q7.26-28.16 6.34-24.99L6.34-24.99L6.34-24.99Q5.90-23.41 5.90-21.96L5.90-21.96L5.90-21.96Q5.90-20.50 6.34-19.18L6.34-19.18L6.34-19.18Q7.39-15.97 10.69-14.87L10.69-14.87L10.69-14.87Q10.60-15.36 10.60-16.37L10.60-16.37L10.60-16.37Q10.60-22.13 14.78-25.70L14.78-25.70L14.78-25.70Q18.96-29.26 24.99-29.26L24.99-29.26L24.99-29.26Q28.95-29.26 31.33-27.10L31.33-27.10L31.33-27.10Q33.35-25.21 33.35-22.46L33.35-22.46L33.35-22.46Q33.35-19.71 31.50-17.71L31.50-17.71L31.50-17.71Q29.66-15.71 26.53-15.71L26.53-15.71L26.53-15.71Q24.82-15.71 23.72-16.37L23.72-16.37L23.72-16.37Q21.47-14.65 18.39-13.90L18.39-13.90L18.39-13.90Q19.27-13.07 22.51-10.82L22.51-10.82L22.51-10.82Q25.74-8.58 27.35-6.53L27.35-6.53L27.35-6.53Q28.95-4.49 28.95-1.76L28.95-1.76L28.95-1.76Q28.95 3.26 25.06 6.38L25.06 6.38L25.06 6.38Q21.16 9.50 15.20 9.50L15.20 9.50L15.20 9.50Q9.24 9.50 6.20 6.86L6.20 6.86L6.20 6.86Q3.56 4.62 3.56 1.39L3.56 1.39L3.56 1.39Q3.56-1.85 5.65-4.16L5.65-4.16L5.65-4.16Q7.74-6.47 10.87-6.47L10.87-6.47L10.87-6.47Q13.99-6.47 15.49-5.08L15.49-5.08L15.49-5.08Q16.98-3.70 16.98-1.72L16.98-1.72L16.98-1.72Q16.98 0.26 15.77 1.80L15.77 1.80L15.77 1.80Q14.56 3.34 12.63 3.34L12.63 3.34L12.63 3.34Q10.69 3.34 9.55 2.11L9.55 2.11L9.55 2.11Q8.49 1.06 8.36-0.53L8.36-0.53L8.36-0.53Q8.32-0.97 8.36-1.06L8.36-1.06L9.20-1.01L9.20-1.01Q9.15 0.53 10.16 1.54L10.16 1.54L10.16 1.54Q11 2.46 12.61 2.46L12.61 2.46L12.61 2.46Q14.21 2.46 15.18 1.21L15.18 1.21L15.18 1.21Q16.15-0.04 16.15-1.69L16.15-1.69L16.15-1.69Q16.15-3.34 15.00-4.36L15.00-4.36L15.00-4.36Q13.73-5.63 10.91-5.63L10.91-5.63L10.91-5.63Q8.10-5.63 6.25-3.59L6.25-3.59L6.25-3.59Q4.40-1.54 4.40 1.34L4.40 1.34L4.40 1.34Q4.40 4.22 6.78 6.25L6.78 6.25L6.78 6.25Q8.18 7.48 9.66 8.01L9.66 8.01L9.66 8.01Q11.13 8.54 13.60 8.54zM21.08-21.74L21.08-21.74L21.08-21.74Q21.08-23.67 22.07-24.95L22.07-24.95L22.07-24.95Q23.06-26.22 24.77-26.22L24.77-26.22L24.77-26.22Q27.72-26.22 27.72-22.99L27.72-22.99L27.72-22.99Q27.72-19.76 24.51-16.90L24.51-16.90L24.51-16.90Q25.48-16.46 26.53-16.46L26.53-16.46L26.53-16.46Q29.26-16.46 30.89-18.24L30.89-18.24L30.89-18.24Q32.52-20.02 32.52-22.42L32.52-22.42L32.52-22.42Q32.52-24.82 30.76-26.49L30.76-26.49L30.76-26.49Q28.60-28.42 25.08-28.42L25.08-28.42L25.08-28.42Q21.56-28.42 19.10-26.71L19.10-26.71L19.10-26.71Q15.27-23.98 15.27-19.67L15.27-19.67L15.27-19.67Q15.27-16.10 17.64-14.48L17.64-14.48L17.64-14.48Q20.59-15.14 23.10-16.85L23.10-16.85L23.10-16.85Q21.08-18.66 21.08-21.74zM24.73-25.43L24.73-25.43L24.73-25.43Q23.41-25.43 22.68-24.42L22.68-24.42L22.68-24.42Q21.96-23.41 21.96-21.74L21.96-21.74L21.96-21.74Q21.96-18.88 23.76-17.38L23.76-17.38L23.76-17.38Q25.08-18.30 25.96-19.89L25.96-19.89L25.96-19.89Q26.84-21.47 26.84-23.01L26.84-23.01L26.84-23.01Q26.84-25.43 24.73-25.43" fill="#3be8b0" stroke="none" stroke-width="none" transform="translate(-130.15001678466797,11.369235251290458)" style="fill: rgb(59, 232, 176);"></path></g><g class="path" style="transform: scale(1); transform-origin: -87.6895px 3.00977px 0px; animation: 1s linear -0.565714s infinite normal forwards running beat-8b8350bc-420b-44f1-8e1b-5b7d88e5f3b7;"><path d="M40.74 0.40L40.74 0.40Q37.36 0.40 35.60-1.30L35.60-1.30L35.60-1.30Q33.84-2.99 33.84-5.57L33.84-5.57L33.84-5.57Q33.84-8.14 34.30-9.97L34.30-9.97L34.30-9.97Q34.76-11.79 35.82-13.49L35.82-13.49L35.82-13.49Q36.87-15.18 39.01-16.15L39.01-16.15L39.01-16.15Q41.14-17.12 44.33-17.12L44.33-17.12L44.33-17.12Q47.52-17.12 49.30-15.42L49.30-15.42L49.30-15.42Q51.08-13.73 51.08-10.78L51.08-10.78L51.08-10.78Q51.08-5.76 48.42-2.68L48.42-2.68L48.42-2.68Q45.76 0.40 40.74 0.40L40.74 0.40zM38.81-4.14L38.81-4.14L38.81-4.14Q38.81-0.62 40.85-0.62L40.85-0.62L40.85-0.62Q42.90-0.62 44.51-4.16L44.51-4.16L44.51-4.16Q46.11-7.70 46.11-12.58L46.11-12.58L46.11-12.58Q46.11-16.28 44.11-16.28L44.11-16.28L44.11-16.28Q42.11-16.28 40.46-12.91L40.46-12.91L40.46-12.91Q38.81-9.55 38.81-4.14" fill="#3be8b0" stroke="none" stroke-width="none" transform="translate(-130.15001678466797,11.369235251290458)" style="fill: rgb(26, 175, 208);"></path></g><g class="path" style="transform: scale(1); transform-origin: -68.9453px 3.00977px 0px; animation: 1s linear -0.518571s infinite normal forwards running beat-8b8350bc-420b-44f1-8e1b-5b7d88e5f3b7;"><path d="M63.84-9.20L63.84-9.20L63.84-9.20Q62.92-10.12 62.92-11.44L62.92-11.44L62.92-11.44Q62.92-12.76 63.84-13.71L63.84-13.71L63.84-13.71Q64.77-14.65 66.09-14.65L66.09-14.65L66.09-14.65Q66.48-14.65 67.10-14.48L67.10-14.48L67.10-14.48Q66.26-16.02 63.98-16.02L63.98-16.02L63.98-16.02Q61.69-16.02 59.93-13.11L59.93-13.11L59.93-13.11Q58.17-10.21 58.17-4.49L58.17-4.49L58.17-4.49Q58.17-2.51 59.07-1.56L59.07-1.56L59.07-1.56Q59.97-0.62 61.34-0.62L61.34-0.62L61.34-0.62Q62.70-0.62 63.82-1.14L63.82-1.14L63.82-1.14Q64.94-1.67 65.60-2.40L65.60-2.40L65.60-2.40Q66.26-3.12 66.75-3.92L66.75-3.92L66.75-3.92Q67.63-5.37 67.63-5.76L67.63-5.76L68.42-5.41L68.42-5.41Q68.29-4.71 67.63-3.54L67.63-3.54L67.63-3.54Q66.97-2.38 66.18-1.63L66.18-1.63L66.18-1.63Q65.38-0.88 63.84-0.24L63.84-0.24L63.84-0.24Q62.30 0.40 60.41 0.40L60.41 0.40L60.41 0.40Q56.85 0.40 55.02-1.30L55.02-1.30L55.02-1.30Q53.20-2.99 53.20-5.94L53.20-5.94L53.20-5.94Q53.20-11.18 55.81-14.15L55.81-14.15L55.81-14.15Q58.43-17.12 62.92-17.12L62.92-17.12L62.92-17.12Q65.96-17.12 67.58-15.58L67.58-15.58L67.58-15.58Q69.21-14.04 69.21-11.53L69.21-11.53L69.21-11.53Q69.21-9.94 68.27-9.11L68.27-9.11L68.27-9.11Q67.32-8.27 66.04-8.27L66.04-8.27L66.04-8.27Q64.77-8.27 63.84-9.20" fill="#3be8b0" stroke="none" stroke-width="none" transform="translate(-130.15001678466797,11.369235251290458)" style="fill: rgb(106, 103, 206);"></path></g><g class="path" style="transform: scale(1); transform-origin: -54.6191px 3.00977px 0px; animation: 1s linear -0.471429s infinite normal forwards running beat-8b8350bc-420b-44f1-8e1b-5b7d88e5f3b7;"><path d="M79.20-1.19L79.20-1.19Q77.88 0.40 75.90 0.40L75.90 0.40L75.90 0.40Q73.92 0.40 72.80-0.62L72.80-0.62L72.80-0.62Q71.68-1.63 71.68-3.26L71.68-3.26L71.68-3.26Q71.68-3.83 72.38-8.05L72.38-8.05L73.83-15.93L71.98-15.93L72.07-16.72L73.96-16.72L73.96-16.72Q77.22-16.72 78.76-16.98L78.76-16.98L79.38-17.12L76.34-0.48L76.34-0.48Q77.66-0.62 78.54-1.72L78.54-1.72L79.20-1.19" fill="#3be8b0" stroke="none" stroke-width="none" transform="translate(-130.15001678466797,11.369235251290458)" style="fill: rgb(255, 185, 0);"></path></g><g class="path" style="transform: scale(1); transform-origin: -52.5605px -12.2402px 0px; animation: 1s linear -0.424286s infinite normal forwards running beat-8b8350bc-420b-44f1-8e1b-5b7d88e5f3b7;"><path d="M75.33-21.34L75.33-21.34L75.33-21.34Q74.40-22.26 74.40-23.58L74.40-23.58L74.40-23.58Q74.40-24.90 75.33-25.85L75.33-25.85L75.33-25.85Q76.25-26.80 77.57-26.80L77.57-26.80L77.57-26.80Q78.89-26.80 79.84-25.85L79.84-25.85L79.84-25.85Q80.78-24.90 80.78-23.58L80.78-23.58L80.78-23.58Q80.78-22.26 79.84-21.34L79.84-21.34L79.84-21.34Q78.89-20.42 77.57-20.42L77.57-20.42L77.57-20.42Q76.25-20.42 75.33-21.34" fill="#3be8b0" stroke="none" stroke-width="none" transform="translate(-130.15001678466797,11.369235251290458)" style="fill: rgb(252, 99, 107);"></path></g><g class="path" style="transform: scale(1); transform-origin: -38.9355px 3.00977px 0px; animation: 1s linear -0.377143s infinite normal forwards running beat-8b8350bc-420b-44f1-8e1b-5b7d88e5f3b7;"><path d="M97.24 0.40L97.24 0.40L97.24 0.40Q93.37 0.40 93.02-2.99L93.02-2.99L93.02-2.99Q91.08 0.40 88.13 0.40L88.13 0.40L88.13 0.40Q85.18 0.40 83.45-1.39L83.45-1.39L83.45-1.39Q81.71-3.17 81.71-6.38L81.71-6.38L81.71-6.38Q81.71-11.40 84.17-14.26L84.17-14.26L84.17-14.26Q86.64-17.12 90.55-17.12L90.55-17.12L90.55-17.12Q93.76-17.12 94.82-14.08L94.82-14.08L94.82-14.08Q95.04-15.40 95.30-16.72L95.30-16.72L95.30-16.72Q98.56-16.72 100.14-16.98L100.14-16.98L100.72-17.12L97.68-0.48L97.68-0.48Q99-0.62 99.88-1.72L99.88-1.72L100.54-1.19L100.54-1.19Q99.22 0.40 97.24 0.40zM86.68-4.14L86.68-4.14Q86.68-2.16 87.19-1.39L87.19-1.39L87.19-1.39Q87.69-0.62 88.75-0.62L88.75-0.62L88.75-0.62Q89.80-0.62 90.90-1.76L90.90-1.76L90.90-1.76Q92.36-3.26 93.24-5.54L93.24-5.54L93.24-5.54Q93.37-6.12 93.74-8.29L93.74-8.29L93.74-8.29Q94.12-10.47 94.38-11.88L94.38-11.88L94.38-11.88Q94.25-13.55 93.46-14.78L93.46-14.78L93.46-14.78Q92.66-16.02 91.48-16.02L91.48-16.02L91.48-16.02Q89.32-16.02 88-12.17L88-12.17L88-12.17Q86.68-8.32 86.68-4.14L86.68-4.14" fill="#3be8b0" stroke="none" stroke-width="none" transform="translate(-130.15001678466797,11.369235251290458)" style="fill: rgb(59, 232, 176);"></path></g><g class="path" style="transform: scale(1); transform-origin: -20.7852px -2.68555px 0px; animation: 1s linear -0.33s infinite normal forwards running beat-8b8350bc-420b-44f1-8e1b-5b7d88e5f3b7;"><path d="M111.06-1.58L111.06-1.58L111.06-1.58Q110.48-0.84 109.49-0.22L109.49-0.22L109.49-0.22Q108.50 0.40 106.92 0.40L106.92 0.40L106.92 0.40Q105.34 0.40 104.24-0.62L104.24-0.62L104.24-0.62Q103.14-1.63 103.14-3.48L103.14-3.48L103.14-3.48Q103.14-3.83 103.22-4.62L103.22-4.62L106.08-20.46L106.08-20.46Q106.88-24.82 108.26-26.66L108.26-26.66L108.26-26.66Q109.65-28.51 111.94-28.51L111.94-28.51L111.94-28.51Q113.52-28.51 114.55-27.32L114.55-27.32L114.55-27.32Q115.59-26.14 115.59-23.72L115.59-23.72L115.59-23.72Q115.59-21.30 113.72-16.81L113.72-16.81L113.72-16.81Q111.85-12.32 111.85-10.25L111.85-10.25L111.06-10.25L111.06-10.25Q111.06-12.58 112.90-16.92L112.90-16.92L112.90-16.92Q114.75-21.25 114.75-23.85L114.75-23.85L114.75-23.85Q114.75-25.43 114.03-26.58L114.03-26.58L114.03-26.58Q113.30-27.72 112.24-27.72L112.24-27.72L112.24-27.72Q112.20-26.58 110.73-17.45L110.73-17.45L110.73-17.45Q109.25-8.32 107.80-0.48L107.80-0.48L107.80-0.48Q109.03-0.48 110.09-1.76L110.09-1.76L110.09-1.76Q111.14-3.04 111.58-4.31L111.58-4.31L112.07-5.63L112.86-5.28L112.86-5.28Q112.73-4.66 112.18-3.50L112.18-3.50L112.18-3.50Q111.63-2.33 111.06-1.58" fill="#3be8b0" stroke="none" stroke-width="none" transform="translate(-130.15001678466797,11.369235251290458)" style="fill: rgb(26, 175, 208);"></path></g><g class="path" style="transform: scale(1); transform-origin: 4.4707px 3.00977px 0px; animation: 1s linear -0.282857s infinite normal forwards running beat-8b8350bc-420b-44f1-8e1b-5b7d88e5f3b7;"><path d="M141.64-0.48L141.64-0.48L141.64-0.48Q142.69-0.48 143.84-1.72L143.84-1.72L144.50-1.19L144.50-1.19Q144.19-0.57 143.13-0.09L143.13-0.09L143.13-0.09Q142.08 0.40 140.80 0.40L140.80 0.40L140.80 0.40Q136.80 0.40 136.80-3.21L136.80-3.21L136.80-3.21Q136.80-4.75 137.59-8.71L137.59-8.71L137.59-8.71Q138.38-12.67 138.38-13.90L138.38-13.90L138.38-13.90Q138.38-15.80 136.58-15.80L136.58-15.80L136.58-15.80Q135.12-15.80 133.78-13.90L133.78-13.90L133.78-13.90Q132.44-12.01 131.56-8.71L131.56-8.71L130.06-0.48L130.06-0.48Q131.43-0.62 132.31-1.72L132.31-1.72L132.97-1.19L132.97-1.19Q131.65 0.40 129.67 0.40L129.67 0.40L129.67 0.40Q127.69 0.40 126.57-0.62L126.57-0.62L126.57-0.62Q125.44-1.63 125.44-3.26L125.44-3.26L125.44-3.26Q125.44-3.87 126.15-8.10L126.15-8.10L127.60-16.24L127.60-16.24Q126.28-16.10 125.40-15.00L125.40-15.00L124.74-15.53L124.74-15.53Q126.06-17.12 128.06-17.12L128.06-17.12L128.06-17.12Q130.06-17.12 131.16-16.10L131.16-16.10L131.16-16.10Q132.26-15.09 132.26-13.24L132.26-13.24L132.26-12.98L132.26-12.98Q134.07-17.12 137.90-17.12L137.90-17.12L137.90-17.12Q140.49-17.12 141.94-15.64L141.94-15.64L141.94-15.64Q143.40-14.17 143.40-11.57L143.40-11.57L143.40-11.57Q143.40-10.21 142.56-6.31L142.56-6.31L142.56-6.31Q141.72-2.42 141.64-0.48" fill="#3be8b0" stroke="none" stroke-width="none" transform="translate(-130.15001678466797,11.369235251290458)" style="fill: rgb(106, 103, 206);"></path></g><g class="path" style="transform: scale(1); transform-origin: 23.9805px 3.00977px 0px; animation: 1s linear -0.235714s infinite normal forwards running beat-8b8350bc-420b-44f1-8e1b-5b7d88e5f3b7;"><path d="M156.07-17.12L156.07-17.12L156.07-17.12Q161.66-17.12 161.66-12.67L161.66-12.67L161.66-12.67Q161.66-9.90 159.04-8.47L159.04-8.47L159.04-8.47Q156.42-7.04 151.58-7.00L151.58-7.00L151.58-7.00Q151.49-5.41 151.49-4.49L151.49-4.49L151.49-4.49Q151.49-2.51 152.39-1.56L152.39-1.56L152.39-1.56Q153.30-0.62 154.66-0.62L154.66-0.62L154.66-0.62Q156.02-0.62 157.15-1.14L157.15-1.14L157.15-1.14Q158.27-1.67 158.93-2.40L158.93-2.40L158.93-2.40Q159.59-3.12 160.07-3.92L160.07-3.92L160.07-3.92Q160.95-5.37 160.95-5.76L160.95-5.76L161.74-5.41L161.74-5.41Q161.61-4.71 160.95-3.54L160.95-3.54L160.95-3.54Q160.29-2.38 159.50-1.63L159.50-1.63L159.50-1.63Q158.71-0.88 157.17-0.24L157.17-0.24L157.17-0.24Q155.63 0.40 153.74 0.40L153.74 0.40L153.74 0.40Q150.17 0.40 148.35-1.30L148.35-1.30L148.35-1.30Q146.52-2.99 146.52-5.94L146.52-5.94L146.52-5.94Q146.52-11.18 149.12-14.15L149.12-14.15L149.12-14.15Q151.71-17.12 156.07-17.12zM160.56-12.67L160.56-12.67Q160.56-14.12 159.70-15.07L159.70-15.07L159.70-15.07Q158.84-16.02 157.15-16.02L157.15-16.02L157.15-16.02Q155.45-16.02 153.85-13.99L153.85-13.99L153.85-13.99Q152.24-11.97 151.71-8.01L151.71-8.01L151.71-8.01Q160.56-8.05 160.56-12.67L160.56-12.67" fill="#3be8b0" stroke="none" stroke-width="none" transform="translate(-130.15001678466797,11.369235251290458)" style="fill: rgb(255, 185, 0);"></path></g><g class="path" style="transform: scale(1); transform-origin: 40.791px -0.246094px 0px; animation: 1s linear -0.188571s infinite normal forwards running beat-8b8350bc-420b-44f1-8e1b-5b7d88e5f3b7;"><path d="M164.52-16.72L166.76-16.72L167.95-23.23L167.95-23.23Q171.20-23.23 172.79-23.50L172.79-23.50L173.36-23.63L173.36-23.63Q172.74-20.55 172.00-16.72L172.00-16.72L177.45-16.72L177.36-15.93L171.86-15.93L171.86-15.93Q169.66-4.58 169.66-2.24L169.66-2.24L169.66-2.24Q169.66-0.84 171.16-0.84L171.16-0.84L171.16-0.84Q172.66-0.84 173.89-2.73L173.89-2.73L173.89-2.73Q175.12-4.62 175.65-6.82L175.65-6.82L176.44-6.56L176.44-6.56Q174.81 0.40 169.71 0.40L169.71 0.40L169.71 0.40Q167.60 0.40 166.19-0.77L166.19-0.77L166.19-0.77Q164.78-1.94 164.78-4.03L164.78-4.03L164.78-4.03Q164.78-6.12 166.58-15.93L166.58-15.93L164.43-15.93L164.52-16.72" fill="#3be8b0" stroke="none" stroke-width="none" transform="translate(-130.15001678466797,11.369235251290458)" style="fill: rgb(252, 99, 107);"></path></g><g class="path" style="transform: scale(1); transform-origin: 62.0391px 3.00977px 0px; animation: 1s linear -0.141429s infinite normal forwards running beat-8b8350bc-420b-44f1-8e1b-5b7d88e5f3b7;"><path d="M200.60-11.66L200.60-11.66L200.60-11.66Q199.67-12.58 199.67-13.90L199.67-13.90L199.67-13.90Q199.67-15.22 200.60-16.17L200.60-16.17L200.60-16.17Q201.52-17.12 202.69-17.12L202.69-17.12L202.69-17.12Q203.85-17.12 204.67-16.52L204.67-16.52L204.67-16.52Q205.48-15.93 205.83-15.00L205.83-15.00L205.83-15.00Q205.88-14.96 205.88-14.92L205.88-14.92L205.88-14.87L205.88-14.87Q206.40-13.73 206.40-11.73L206.40-11.73L206.40-11.73Q206.40-9.72 206.14-8.32L206.14-8.32L206.14-8.32Q205.88-6.91 205.17-5.32L205.17-5.32L205.17-5.32Q204.47-3.74 203.46-2.49L203.46-2.49L203.46-2.49Q202.44-1.23 200.75-0.42L200.75-0.42L200.75-0.42Q199.06 0.40 196.99 0.40L196.99 0.40L196.99 0.40Q193.47 0.40 191.71-2.16L191.71-2.16L191.71-2.16Q189.60 0.40 185.94 0.40L185.94 0.40L185.94 0.40Q183.13 0.40 181.35-1.36L181.35-1.36L181.35-1.36Q179.56-3.12 179.56-5.41L179.56-5.41L179.56-5.41Q179.56-7.70 180.38-11.07L180.38-11.07L180.38-11.07Q181.19-14.43 181.28-16.24L181.28-16.24L181.28-16.24Q180.58-16.19 179.92-15.73L179.92-15.73L179.92-15.73Q179.26-15.27 178.95-14.83L178.95-14.83L178.64-14.39L177.98-14.92L177.98-14.92Q178.11-15.18 178.38-15.53L178.38-15.53L178.38-15.53Q178.64-15.88 179.72-16.50L179.72-16.50L179.72-16.50Q180.80-17.12 182.42-17.12L182.42-17.12L182.42-17.12Q184.05-17.12 185.04-16.06L185.04-16.06L185.04-16.06Q186.03-15.00 186.03-13.38L186.03-13.38L186.03-13.38Q186.03-11.75 185.15-8.34L185.15-8.34L185.15-8.34Q184.27-4.93 184.27-3.54L184.27-3.54L184.27-3.54Q184.27-2.16 184.91-1.36L184.91-1.36L184.91-1.36Q185.55-0.57 186.74-0.57L186.74-0.57L186.74-0.57Q189.29-0.57 191.09-3.21L191.09-3.21L191.09-3.21Q190.61-4.44 190.61-6.07L190.61-6.07L190.61-6.07Q190.61-7.70 191.42-11.07L191.42-11.07L191.42-11.07Q192.24-14.43 192.32-16.24L192.32-16.24L192.32-16.24Q191.62-16.19 190.96-15.73L190.96-15.73L190.96-15.73Q190.30-15.27 189.99-14.83L189.99-14.83L189.68-14.39L189.02-14.92L189.02-14.92Q189.16-15.18 189.42-15.53L189.42-15.53L189.42-15.53Q189.68-15.88 190.76-16.50L190.76-16.50L190.76-16.50Q191.84-17.12 193.47-17.12L193.47-17.12L193.47-17.12Q195.10-17.12 196.09-16.06L196.09-16.06L196.09-16.06Q197.08-15.00 197.08-13.38L197.08-13.38L197.08-13.38Q197.08-11.75 196.20-8.34L196.20-8.34L196.20-8.34Q195.32-4.93 195.32-3.54L195.32-3.54L195.32-3.54Q195.32-2.16 195.95-1.36L195.95-1.36L195.95-1.36Q196.59-0.57 197.78-0.57L197.78-0.57L197.78-0.57Q200.73-0.57 203.06-3.76L203.06-3.76L203.06-3.76Q205.39-6.95 205.39-10.96L205.39-10.96L205.39-10.96Q205.39-11.26 205.30-11.88L205.30-11.88L205.30-11.88Q204.38-10.74 202.95-10.74L202.95-10.74L202.95-10.74Q201.52-10.74 200.60-11.66" fill="#3be8b0" stroke="none" stroke-width="none" transform="translate(-130.15001678466797,11.369235251290458)" style="fill: rgb(59, 232, 176);"></path></g><g class="path" style="transform: scale(1); transform-origin: 86.9902px 3.00977px 0px; animation: 1s linear -0.0942857s infinite normal forwards running beat-8b8350bc-420b-44f1-8e1b-5b7d88e5f3b7;"><path d="M215.42 0.40L215.42 0.40Q212.04 0.40 210.28-1.30L210.28-1.30L210.28-1.30Q208.52-2.99 208.52-5.57L208.52-5.57L208.52-5.57Q208.52-8.14 208.98-9.97L208.98-9.97L208.98-9.97Q209.44-11.79 210.50-13.49L210.50-13.49L210.50-13.49Q211.55-15.18 213.69-16.15L213.69-16.15L213.69-16.15Q215.82-17.12 219.01-17.12L219.01-17.12L219.01-17.12Q222.20-17.12 223.98-15.42L223.98-15.42L223.98-15.42Q225.76-13.73 225.76-10.78L225.76-10.78L225.76-10.78Q225.76-5.76 223.10-2.68L223.10-2.68L223.10-2.68Q220.44 0.40 215.42 0.40L215.42 0.40zM213.49-4.14L213.49-4.14L213.49-4.14Q213.49-0.62 215.53-0.62L215.53-0.62L215.53-0.62Q217.58-0.62 219.19-4.16L219.19-4.16L219.19-4.16Q220.79-7.70 220.79-12.58L220.79-12.58L220.79-12.58Q220.79-16.28 218.79-16.28L218.79-16.28L218.79-16.28Q216.79-16.28 215.14-12.91L215.14-12.91L215.14-12.91Q213.49-9.55 213.49-4.14" fill="#3be8b0" stroke="none" stroke-width="none" transform="translate(-130.15001678466797,11.369235251290458)" style="fill: rgb(26, 175, 208);"></path></g><g class="path" style="transform: scale(1); transform-origin: 106.039px 2.81055px 0px; animation: 1s linear -0.0471429s infinite normal forwards running beat-8b8350bc-420b-44f1-8e1b-5b7d88e5f3b7;"><path d="M228.84-15.00L228.18-15.53L228.18-15.53Q229.50-17.12 231.51-17.12L231.51-17.12L231.51-17.12Q233.51-17.12 234.61-16.10L234.61-16.10L234.61-16.10Q235.71-15.09 235.71-13.24L235.71-13.24L235.71-12.98L235.71-12.98Q237.69-17.12 240.86-17.12L240.86-17.12L240.86-17.12Q244.24-17.12 244.24-13.60L244.24-13.60L244.24-13.60Q244.24-12.14 243.28-10.52L243.28-10.52L243.28-10.52Q242.31-8.89 241.34-7.41L241.34-7.41L241.34-7.41Q240.37-5.94 240.37-4.80L240.37-4.80L239.32-4.80L239.32-4.80Q239.32-6.42 241.21-9.20L241.21-9.20L241.21-9.20Q243.10-11.97 243.10-13.49L243.10-13.49L243.10-13.49Q243.10-15.00 242.51-15.55L242.51-15.55L242.51-15.55Q241.91-16.10 240.75-16.10L240.75-16.10L240.75-16.10Q239.58-16.10 238.46-15.09L238.46-15.09L238.46-15.09Q237.34-14.08 236.59-12.54L236.59-12.54L236.59-12.54Q235.40-10.25 235.00-8.80L235.00-8.80L235.00-8.76L233.42 0L228.14 0L231.04-16.24L231.04-16.24Q229.72-16.10 228.84-15.00L228.84-15.00" fill="#3be8b0" stroke="none" stroke-width="none" transform="translate(-130.15001678466797,11.369235251290458)" style="fill: rgb(106, 103, 206);"></path></g><g class="path" style="transform: scale(1); transform-origin: 124.102px -2.68555px 0px; animation: 1s linear 0s infinite normal forwards running beat-8b8350bc-420b-44f1-8e1b-5b7d88e5f3b7;"><path d="M251.50-8.49L251.50-8.49L249.92 0L244.68 0L249.66-27.63L249.66-27.63Q248.34-27.50 247.46-26.40L247.46-26.40L246.80-26.93L246.80-26.93Q248.12-28.51 250.12-28.51L250.12-28.51L250.12-28.51Q252.12-28.51 253.22-27.50L253.22-27.50L253.22-27.50Q254.32-26.49 254.32-24.64L254.32-24.64L254.32-24.64Q254.32-24.29 254.23-23.50L254.23-23.50L254.23-23.50Q253.22-17.91 252.03-11.44L252.03-11.44L252.03-11.44Q253.13-14.12 255.20-15.62L255.20-15.62L255.20-15.62Q257.27-17.12 259.60-17.12L259.60-17.12L259.60-17.12Q261.93-17.12 262.88-16.19L262.88-16.19L262.88-16.19Q263.82-15.27 263.82-13.88L263.82-13.88L263.82-13.88Q263.82-12.50 262.99-11.62L262.99-11.62L262.99-11.62Q262.15-10.74 260.81-10.74L260.81-10.74L260.81-10.74Q259.47-10.74 258.74-11.51L258.74-11.51L258.74-11.51Q258.02-12.28 258.02-13.79L258.02-13.79L258.02-13.79Q258.02-15.31 259.07-16.10L259.07-16.10L259.07-16.10Q254.85-15.62 252.34-9.86L252.34-9.86L252.34-9.86Q252.96-9.94 253.40-9.94L253.40-9.94L253.40-9.94Q255.73-9.94 257.07-9.02L257.07-9.02L257.07-9.02Q258.41-8.10 258.81-6.75L258.81-6.75L258.81-6.75Q259.20-5.41 259.38-4.07L259.38-4.07L259.38-4.07Q259.56-2.73 259.95-1.80L259.95-1.80L259.95-1.80Q260.35-0.88 261.36-0.88L261.36-0.88L261.36-0.88Q262.37-0.88 262.94-1.72L262.94-1.72L263.60-1.19L263.60-1.19Q263.30-0.57 262.24-0.09L262.24-0.09L262.24-0.09Q261.18 0.40 259.53 0.40L259.53 0.40L259.53 0.40Q257.88 0.40 256.63-0.44L256.63-0.44L256.63-0.44Q255.38-1.28 254.89-2.53L254.89-2.53L254.89-2.53Q254.41-3.78 254.10-5.02L254.10-5.02L254.10-5.02Q253.26-8.18 251.50-8.49" fill="#3be8b0" stroke="none" stroke-width="none" transform="translate(-130.15001678466797,11.369235251290458)" style="fill: rgb(255, 185, 0);"></path></g></g>
</g>
</g>
<style id="beat-8b8350bc-420b-44f1-8e1b-5b7d88e5f3b7" data-anikit="" wfd-invisible="true">@keyframes beat-8b8350bc-420b-44f1-8e1b-5b7d88e5f3b7
{
  0% {
    animation-timing-function: cubic-bezier(0.1028,0.2484,0.1372,0.849);
    transform: scale(1);
  }
  34% {
    animation-timing-function: cubic-bezier(0.7116,0.2095,0.8159,0.6876);
    transform: scale(1.2);
  }
  68% {
    animation-timing-function: cubic-bezier(0.1475,0.2888,0.294,0.883);
    transform: scale(1.0268);
  }
  84% {
    animation-timing-function: cubic-bezier(0.8176,0.2193,0.867,0.6889);
    transform: scale(1.0932);
  }
  100% {
    transform: scale(1);
  }
}</style></svg>